<?xml version="1.0" encoding="UTF-8"?>
<svg width="16" height="16" version="1.1" xml:space="preserve" xmlns="http://www.w3.org/2000/svg"><path d="m6 2.9995a1 1 0 0 0-0.70704 0.29291l-3.9999 4.0003a1 1 0 0 0 0 1.414l3.9999 4.0003a1 1 0 0 0 0.70704 0.29291l8.0001 2.27e-4a1 1 0 0 0 0.99984-1.0001v-8.0001a1 1 0 0 0-0.99984-1.0001h-5.9701l0.98646 0.98646c0.38612-0.13115 0.8132-0.030236 1.1016 0.25663 0.29027 0.29027 0.38876 0.72076 0.25436 1.1085l1.552 1.5517c0.38789-0.13455 0.8188-0.034016 1.109 0.25474 0.419 0.41888 0.419 1.0981 0 1.517-0.41938 0.41896-1.0989 0.41896-1.5183 0-0.30576-0.30652-0.39768-0.76664-0.23282-1.167l-1.4475-1.4469v3.8086c0.65832 0.32542 0.80266 1.2008 0.28346 1.7201-0.41892 0.41896-1.0981 0.41896-1.517 0-0.41907-0.41892-0.41907-1.0983 0-1.5172 0.10054-0.10054 0.21959-0.18028 0.35112-0.23471v-3.8434c-0.5503-0.22677-0.81139-0.85773-0.58205-1.4069l-1.5873-1.5877zm-1.0001 3.9999a1.0001 1.0001 0 0 1 0 2.0002 1.0001 1.0001 0 0 1 0-2.0002z" fill="#8eef97" stroke-width=".99999"/></svg>
